#!OML:ASF F:\VICON\USERDATA\INSTALL\rory3\rory3.ASF
:FULLY-SPECIFIED
:DEGREES
3781
root -2.53407 17.5513 0.794964 7.7368 30.5969 -4.93275
lowerback 5.88915 8.15456 1.19048
upperback 1.58477 10.8824 -4.4754
thorax -0.517321 5.48883 -5.86888
lowerneck -12.0225 -15.0406 -17.2614
upperneck 12.5635 -20.5399 17.8517
head 9.68065 -9.2546 5.82542
rclavicle 3.02153e-014 -5.80451e-014
rhumerus 19.2443 17.0971 -69.3716
rradius 47.0381
rwrist 31.6541
rhand -29.831 4.60357
rfingers 7.12502
rthumb -3.15425 -25.3528
lclavicle 3.02153e-014 -5.80451e-014
lhumerus -44.0124 33.5344 10.2518
lradius 41.4126
lwrist -10.8206
lhand -20.7392 27.7585
lfingers 7.12502
lthumb 5.62617 57.6638
rfemur -13.9479 -9.75032 16.307
rtibia 29.4516
rfoot -23.0601 -8.54169
rtoes 2.63889
lfemur -31.8106 -10.3781 -10.3494
ltibia 37.6447
lfoot -15.0248 -11.9266
ltoes -14.8729
3782
root -2.53064 17.5509 0.782738 7.58468 29.6696 -4.65662
lowerback 5.7841 7.87976 0.952325
upperback 1.52901 10.5004 -4.29343
thorax -0.637213 5.28884 -5.53481
lowerneck -11.9299 -14.9146 -17.2831
upperneck 12.4934 -20.4063 18.0531
head 9.64499 -9.18582 5.93304
rclavicle 2.78299e-015 6.04305e-014
rhumerus 17.6771 16.3532 -70.0782
rradius 46.9386
rwrist 32.0807
rhand -29.9047 5.01891
rfingers 7.12502
rthumb -3.22538 -24.9364
lclavicle 2.78299e-015 6.04305e-014
lhumerus -43.7722 33.0358 11.1689
lradius 41.4865
lwrist -11.1678
lhand -20.7686 27.8103
lfingers 7.12502
lthumb 5.59772 57.7164
rfemur -13.8092 -9.34718 15.8409
rtibia 29.438
rfoot -22.7158 -8.0763
rtoes 2.77113
lfemur -31.1795 -10.0321 -10.7411
ltibia 37.5051
lfoot -15.0606 -11.4779
ltoes -15.0503
3783
root -2.52585 17.5525 0.769588 7.43116 28.6761 -4.34866
lowerback 5.75901 7.54363 0.70564
upperback 1.52596 10.0371 -4.09534
thorax -0.752571 5.04963 -5.18287
lowerneck -12.2775 -14.7882 -17.3962
upperneck 12.6729 -20.2122 18.1754
head 9.76187 -9.06548 6.01468
rclavicle 4.21423e-014 -4.69132e-014
rhumerus 16.1546 15.9508 -70.6417
rradius 47.0317
rwrist 32.53
rhand -30.1183 4.44388
rfingers 7.12502
rthumb -3.43169 -25.5082
lclavicle 4.21423e-014 -4.69132e-014
lhumerus -43.6724 32.2273 12.1288
lradius 41.619
lwrist -11.2071
lhand -20.6058 27.6198
lfingers 7.12502
lthumb 5.75495 57.5217
rfemur -13.6399 -8.90179 15.3448
rtibia 29.349
rfoot -22.251 -7.7232
rtoes 2.39165
lfemur -30.5678 -9.70565 -11.1571
ltibia 37.4201
lfoot -15.0691 -11.0352
ltoes -15.0135
3784
root -2.52568 17.5532 0.759338 7.07168 27.6936 -4.30851
lowerback 5.73261 7.24686 0.689265
upperback 1.68594 9.64595 -3.77144
thorax -0.668988 4.85262 -4.81071
lowerneck -12.9094 -14.7922 -17.6402
upperneck 12.8566 -20.1266 18.262
head 9.96159 -8.98652 6.06316
rclavicle 1.09729e-013 -2.54444e-014
rhumerus 15.0479 15.7373 -70.4573
rradius 47.0957
rwrist 32.726
rhand -30.4432 3.95753
rfingers 7.12502
rthumb -3.74544 -25.9893
lclavicle 1.09729e-013 -2.54444e-014
lhumerus -43.3433 31.4568 13.4163
lradius 41.712
lwrist -11.1185
lhand -20.4713 27.3518
lfingers 7.12502
lthumb 5.88476 57.2501
rfemur -13.3638 -8.31051 15.1331
rtibia 29.2131
rfoot -21.8575 -7.51401
rtoes 2.25822
lfemur -29.8803 -9.33824 -11.3152
ltibia 37.3546
lfoot -15.1279 -10.5693
ltoes -14.9088
3785
root -2.52693 17.5526 0.750044 6.40482 26.6758 -4.50601
lowerback 5.81881 6.98939 0.860144
upperback 1.88208 9.31775 -3.405
thorax -0.577521 4.68855 -4.5108
lowerneck -13.1995 -14.744 -17.7558
upperneck 12.8443 -20.0247 18.4143
head 10.0235 -8.91548 6.13954
rclavicle -5.14852e-014 5.48646e-014
rhumerus 14.0565 15.2985 -70.2712
rradius 46.9997
rwrist 32.9865
rhand -31.2833 4.10686
rfingers 7.12502
rthumb -4.55667 -25.8241
lclavicle -5.14852e-014 5.48646e-014
lhumerus -42.8762 31.0721 14.696
lradius 41.7149
lwrist -11.6383
lhand -20.6497 28.0503
lfingers 7.12502
lthumb 5.71253 57.9533
rfemur -12.8826 -7.57523 15.1483
rtibia 29.1134
rfoot -21.65 -7.31548
rtoes 2.4779
lfemur -28.9368 -8.83896 -11.2768
ltibia 37.2691
lfoot -15.2809 -10.1873
ltoes -15.0118
3786
root -2.52366 17.5522 0.73694 5.8147 25.5837 -4.25639
lowerback 6.09473 6.64172 0.637395
upperback 2.11229 8.84446 -3.1005
thorax -0.614199 4.44867 -4.08022
lowerneck -13.6339 -14.6323 -17.9595
upperneck 12.9184 -19.8089 18.5872
head 10.1317 -8.78363 6.25572
rclavicle -6.61953e-014 3.81667e-014
rhumerus 13.1376 14.8414 -70.301
rradius 46.9151
rwrist 33.4314
rhand -31.9293 4.40063
rfingers 7.12502
rthumb -5.18043 -25.516
lclavicle -6.61953e-014 3.81667e-014
lhumerus -42.813 31.1156 15.7185
lradius 41.7049
lwrist -12.5829
lhand -21.0914 28.9974
lfingers 7.12502
lthumb 5.28611 58.9115
rfemur -12.2926 -7.01992 14.7008
rtibia 29.0655
rfoot -21.4612 -7.02607
rtoes 1.76821
lfemur -27.8161 -8.33043 -11.7136
ltibia 37.1477
lfoot -15.44 -9.78984
ltoes -14.9689
